<svg width="801" height="748" viewBox="0 0 801 748" fill="none" xmlns="http://www.w3.org/2000/svg">
<path opacity="0.4" d="M603.111 2.68134C668.426 13.9416 727.002 67.0259 762.77 134.588C798.537 202.686 811.497 285.261 791.798 356.04C772.1 427.355 719.226 486.338 671.536 560.334C624.364 634.33 582.376 722.804 519.653 743.18C457.448 763.555 375.027 716.369 322.671 657.387C270.316 598.404 248.544 527.625 196.707 476.686C144.87 426.283 64.0037 395.719 25.6441 338.881C-12.1971 282.044 -7.53172 198.932 35.4932 146.92C77.9997 94.3723 158.866 73.4603 225.736 62.7362C292.087 52.0121 344.443 51.4759 405.611 36.4622C467.297 20.9123 538.314 -9.11516 603.111 2.68134Z" fill="#F4645F"/>
</svg>
